<svg xmlns="http://www.w3.org/2000/svg" xmlns:xlink="http://www.w3.org/1999/xlink" width="500" zoomAndPan="magnify" viewBox="0 0 375 374.999991" height="500" preserveAspectRatio="xMidYMid meet" version="1.0"><defs><clipPath id="bffb79380e"><path d="M 135 104 L 241 104 L 241 272.957031 L 135 272.957031 Z M 135 104 " clip-rule="nonzero"/></clipPath><clipPath id="49e0d173e1"><path d="M 135 72.707031 L 349.90625 72.707031 L 349.90625 127 L 135 127 Z M 135 72.707031 " clip-rule="nonzero"/></clipPath><clipPath id="f042d2f446"><path d="M 245 104 L 349.90625 104 L 349.90625 272.957031 L 245 272.957031 Z M 245 104 " clip-rule="nonzero"/></clipPath><clipPath id="e512ff5df4"><path d="M 8.65625 104 L 39 104 L 39 120 L 8.65625 120 Z M 8.65625 104 " clip-rule="nonzero"/></clipPath><clipPath id="d9972011f3"><path d="M 0 367.402344 L 3.75 367.402344 L 3.75 371.902344 L 0 371.902344 Z M 0 367.402344 " clip-rule="nonzero"/></clipPath><clipPath id="98dd646b8c"><path d="M 0 367.402344 L 3.75 367.402344 L 3.75 371 L 0 371 Z M 0 367.402344 " clip-rule="nonzero"/></clipPath></defs><g clip-path="url(#bffb79380e)"><path fill="#f29727" d="M 233.277344 138.203125 L 135.5625 104.296875 L 135.5625 236.945312 L 240.070312 273.210938 Z M 233.277344 138.203125 " fill-opacity="1" fill-rule="evenodd"/></g><g clip-path="url(#49e0d173e1)"><path fill="#f29727" d="M 242.761719 72.613281 L 349.964844 99.414062 L 242.761719 126.214844 L 135.5625 99.414062 Z M 242.761719 72.613281 " fill-opacity="1" fill-rule="evenodd"/></g><g clip-path="url(#f042d2f446)"><path fill="#f29727" d="M 252.25 138.203125 L 349.964844 104.296875 L 349.964844 236.945312 L 245.453125 273.210938 Z M 252.25 138.203125 " fill-opacity="1" fill-rule="evenodd"/></g><path fill="#f29727" d="M 135.5625 104.296875 L 55.007812 104.296875 C 50.953125 104.296875 47.640625 107.613281 47.640625 111.667969 C 47.640625 115.71875 50.953125 119.035156 55.007812 119.035156 L 135.5625 119.035156 C 139.617188 119.035156 142.929688 115.71875 142.929688 111.667969 Z M 135.5625 104.296875 " fill-opacity="1" fill-rule="evenodd"/><path fill="#f29727" d="M 135.5625 133.773438 L 74.910156 133.773438 C 70.855469 133.773438 67.539062 137.089844 67.539062 141.144531 C 67.539062 145.195312 70.855469 148.511719 74.910156 148.511719 L 135.5625 148.511719 C 139.617188 148.511719 142.933594 145.199219 142.933594 141.144531 C 142.929688 137.089844 139.617188 133.773438 135.5625 133.773438 " fill-opacity="1" fill-rule="evenodd"/><path fill="#f29727" d="M 135.5625 163.25 L 66.785156 163.25 C 62.734375 163.25 59.417969 166.566406 59.417969 170.621094 C 59.417969 174.675781 62.734375 177.992188 66.785156 177.992188 L 135.5625 177.992188 C 139.617188 177.992188 142.929688 174.675781 142.929688 170.621094 C 142.929688 166.566406 139.617188 163.25 135.5625 163.25 " fill-opacity="1" fill-rule="evenodd"/><path fill="#f29727" d="M 135.5625 192.730469 L 107.394531 192.730469 C 103.339844 192.730469 100.027344 196.042969 100.027344 200.097656 C 100.027344 204.152344 103.339844 207.46875 107.394531 207.46875 L 135.5625 207.46875 C 139.617188 207.46875 142.929688 204.152344 142.929688 200.097656 C 142.929688 196.042969 139.617188 192.730469 135.5625 192.730469 " fill-opacity="1" fill-rule="evenodd"/><path fill="#f29727" d="M 135.5625 222.207031 L 87.316406 222.207031 C 83.261719 222.207031 79.945312 225.519531 79.945312 229.578125 C 79.945312 233.628906 83.261719 236.945312 87.316406 236.945312 L 135.5625 236.945312 C 139.617188 236.945312 142.929688 233.632812 142.929688 229.578125 C 142.929688 225.519531 139.617188 222.207031 135.5625 222.207031 " fill-opacity="1" fill-rule="evenodd"/><path fill="#f29727" d="M 84.128906 192.730469 L 68.953125 192.730469 C 64.902344 192.730469 61.585938 196.042969 61.585938 200.097656 C 61.585938 204.152344 64.902344 207.46875 68.953125 207.46875 L 84.128906 207.46875 C 88.179688 207.46875 91.496094 204.152344 91.496094 200.097656 C 91.496094 196.042969 88.179688 192.730469 84.128906 192.730469 " fill-opacity="1" fill-rule="evenodd"/><path fill="#f29727" d="M 52.183594 133.773438 L 26.722656 133.773438 C 22.667969 133.773438 19.351562 137.089844 19.351562 141.144531 C 19.351562 145.195312 22.667969 148.511719 26.722656 148.511719 L 52.183594 148.511719 C 56.238281 148.511719 59.550781 145.199219 59.550781 141.144531 C 59.550781 137.089844 56.238281 133.773438 52.183594 133.773438 " fill-opacity="1" fill-rule="evenodd"/><g clip-path="url(#e512ff5df4)"><path fill="#f29727" d="M 30.664062 104.296875 L 16.023438 104.296875 C 11.96875 104.296875 8.65625 107.613281 8.65625 111.667969 C 8.65625 115.71875 11.96875 119.035156 16.023438 119.035156 L 30.664062 119.035156 C 34.71875 119.035156 38.03125 115.71875 38.03125 111.667969 C 38.03125 107.613281 34.71875 104.296875 30.664062 104.296875 " fill-opacity="1" fill-rule="evenodd"/></g><g clip-path="url(#d9972011f3)"><path fill="#ffffff" d="M 1.980469 367.636719 C 0.890625 367.636719 0 368.527344 0 369.617188 C 0 370.710938 0.890625 371.597656 1.980469 371.597656 C 3.070312 371.597656 3.960938 370.710938 3.960938 369.617188 C 3.960938 369.144531 3.800781 368.722656 3.53125 368.378906 L 3.34375 368.597656 C 3.578125 368.890625 3.671875 369.214844 3.671875 369.617188 C 3.671875 370.554688 2.914062 371.308594 1.980469 371.308594 C 1.042969 371.308594 0.289062 370.554688 0.289062 369.617188 C 0.289062 368.683594 1.042969 367.925781 1.980469 367.925781 C 2.277344 367.925781 2.5 367.96875 2.742188 368.101562 L 2.917969 367.871094 C 2.632812 367.714844 2.328125 367.636719 1.980469 367.636719 Z M 1.980469 367.636719 " fill-opacity="1" fill-rule="evenodd"/></g><g clip-path="url(#98dd646b8c)"><path fill="#ffffff" d="M 1.246094 369.359375 C 1.328125 369.359375 1.386719 369.421875 1.429688 369.554688 C 1.511719 369.800781 1.570312 369.921875 1.605469 369.921875 C 1.628906 369.921875 1.65625 369.902344 1.6875 369.859375 C 2.261719 368.941406 2.792969 368.195312 3.285156 367.625 C 3.410156 367.476562 3.613281 367.402344 3.890625 367.402344 C 3.953125 367.402344 4 367.410156 4.019531 367.421875 C 4.042969 367.433594 4.054688 367.449219 4.054688 367.46875 C 4.054688 367.496094 4.019531 367.554688 3.953125 367.636719 C 3.164062 368.585938 2.429688 369.589844 1.753906 370.648438 C 1.707031 370.722656 1.609375 370.757812 1.464844 370.757812 C 1.316406 370.757812 1.230469 370.753906 1.203125 370.738281 C 1.136719 370.710938 1.054688 370.550781 0.957031 370.269531 C 0.851562 369.957031 0.800781 369.761719 0.800781 369.679688 C 0.800781 369.59375 0.871094 369.511719 1.015625 369.429688 C 1.101562 369.382812 1.179688 369.359375 1.246094 369.359375 " fill-opacity="1" fill-rule="nonzero"/></g></svg>